<svg xmlns="http://www.w3.org/2000/svg" viewBox="0 0 512 512" role="img" aria-labelledby="title">
  <title>ASN Kidney Week English</title>
  <rect width="512" height="512" rx="96" fill="#0f766e"/>
  <path d="M171 123c-45 16-73 58-73 112 0 73 54 135 119 135 23 0 38-14 38-35 0-28-34-38-34-82 0-25 14-45 35-54-6-47-39-88-85-76Z" fill="#ffffff"/>
  <path d="M341 123c45 16 73 58 73 112 0 73-54 135-119 135-23 0-38-14-38-35 0-28 34-38 34-82 0-25-14-45-35-54 6-47 39-88 85-76Z" fill="#e6f2ef"/>
  <path d="M153 393h206" stroke="#f6d365" stroke-width="28" stroke-linecap="round"/>
</svg>
